inDegrees=no
num_controls=7
num_derivatives=13
num_iterations=181
num_multipliers=7
num_parameters=0
num_slacks=7
num_states=26
objective=5.623229
objective_accelerations=0.551701
objective_balance=0.013451
objective_effort=0.440508
objective_height=4.564991
objective_ligament=0.052578
solver_duration=1513.762148
status=Solve_Succeeded
success=true
DataType=double
version=3
OpenSimVersion=4.4-2022-07-23-0e9fedc
endheader
time	/jointset/ground_pelvis/pelvis_tilt/value	/jointset/ground_pelvis/pelvis_tx/value	/jointset/ground_pelvis/pelvis_ty/value	/jointset/hip_r/hip_flexion_r/value	/jointset/hip_r/hip_adduction_r/value	/jointset/hip_r/hip_rotation_r/value	/jointset/back/lumbar_extension/value	/jointset/patellofemoral_r/patellar_flexion_r/value	/jointset/knee_r/knee_flexion_r/value	/jointset/knee_r/knee_adduction_r/value	/jointset/knee_r/knee_rotation_r/value	/jointset/ankle_r/ankle_angle_r/value	/jointset/subtalar_r/subtalar_angle_r/value	/jointset/ground_pelvis/pelvis_tilt/speed	/jointset/ground_pelvis/pelvis_tx/speed	/jointset/ground_pelvis/pelvis_ty/speed	/jointset/hip_r/hip_flexion_r/speed	/jointset/hip_r/hip_adduction_r/speed	/jointset/hip_r/hip_rotation_r/speed	/jointset/back/lumbar_extension/speed	/jointset/patellofemoral_r/patellar_flexion_r/speed	/jointset/knee_r/knee_flexion_r/speed	/jointset/knee_r/knee_adduction_r/speed	/jointset/knee_r/knee_rotation_r/speed	/jointset/ankle_r/ankle_angle_r/speed	/jointset/subtalar_r/subtalar_angle_r/speed	/forceset/tau_hip_flexion_r	/forceset/tau_hip_adduction_r	/forceset/tau_hip_rotation_r	/forceset/tau_knee_flexion_r	/forceset/tau_ankle_angle_r	/forceset/tau_subtalar_angle_r	/forceset/tau_lumbar_extension	lambda_cid13_p0	lambda_cid14_p0	lambda_cid14_p1	lambda_cid14_p2	lambda_cid14_p3	lambda_cid14_p4	lambda_cid14_p5	/jointset/ground_pelvis/pelvis_tilt/accel	/jointset/ground_pelvis/pelvis_tx/accel	/jointset/ground_pelvis/pelvis_ty/accel	/jointset/hip_r/hip_flexion_r/accel	/jointset/hip_r/hip_adduction_r/accel	/jointset/hip_r/hip_rotation_r/accel	/jointset/back/lumbar_extension/accel	/jointset/patellofemoral_r/patellar_flexion_r/accel	/jointset/knee_r/knee_flexion_r/accel	/jointset/knee_r/knee_adduction_r/accel	/jointset/knee_r/knee_rotation_r/accel	/jointset/ankle_r/ankle_angle_r/accel	/jointset/subtalar_r/subtalar_angle_r/accel	gamma_cid13_p0	gamma_cid14_p0	gamma_cid14_p1	gamma_cid14_p2	gamma_cid14_p3	gamma_cid14_p4	gamma_cid14_p5
0.5	-0.1322358002180526	0.03674953324621213	0.8157847218093376	0.8478805830818383	-0.2520694949718192	-0.05795565507049885	-0.6434928565870777	0.9298637945545176	0.9298637945545487	0.06462363427464723	0.1744698384293454	0.2887613563048181	0.09055330140471783	-0.3344758951754099	-0.1917750259428685	-0.4561932666975173	1.749447819032327	-0.02923697869601326	0.4678819038097865	-0.7375373785889728	1.858267570864566	1.858267570864555	-0.1253352467457494	-0.0009740220392082427	0.5246095901016331	0.1249162012284752	-0.1925668555715312	-0.001996516205934295	0.03511199548593696	-0.2825665777824132	-0.01182423036573317	-0.008396713662934615	0.2371726975505816	-9.268916076774881	-46.6806549898762	-9.76065410035403	-0.3743763442713816	-3.161268550721925	-644.3856151998962	63.48308621211365	0.2423960408889171	0.5372258665392897	-0.3572482720558956	-1.214441548418923	0.160171674388689	-0.2206785671707864	1.750229590645666	-1.38847124298154	-1.388471242981548	0.4464201902473612	-0.02528617818041838	-0.47247779176019	0.1778060982598396	-1.012482133181757e-07	-2.858811048586915e-08	1.25318215708687e-06	-3.326271285155631e-07	-1.171016819678379e-07	-1.527869167678921e-07	8.444884393701732e-07
0.51	-0.1355677337504861	0.034858809795082	0.8112059718280835	0.8653115907709651	-0.2523543463825636	-0.05328942610589729	-0.6507801244716807	0.9483742624300456	0.9483742624300858	0.06339280527828588	0.1744604484550261	0.2939827887788591	0.09181034303091726	-0.3318599492751972	-0.1863544533290426	-0.4594549616999128	1.736518790073638	-0.02772728622730499	0.4653084096838992	-0.719832016952744	1.843573026554633	1.843573026554635	-0.1208542485549764	-0.000902550279834894	0.5196022642266278	0.1264815984988888	-0.1986220630926587	-0.001229460151794039	0.03570717790212018	-0.2871023188853599	-0.01312566731817823	-0.00794354234400646	0.2428357702269673	-8.303808354127911	-47.36282774612648	-9.788019251346141	-0.2503821004613107	-3.071437500165578	-648.8846168963095	63.91742669401502	0.2788219789682971	0.5467279492675204	-0.2953953117477875	-1.367374880853374	0.1473173388670002	-0.2841542101675625	1.793316656893418	-1.547872535069696	-1.547872535067581	0.4455713244713316	0.02356033915178721	-0.5260959346867218	0.1445095244179175	-9.710146110340804e-08	-1.8331214916348e-08	1.348164836015372e-06	-2.576986626582934e-07	-1.33657687405011e-07	-1.451410723459248e-07	9.064070956425011e-07
0.52	-0.1388719822010387	0.03302274306818288	0.8065976518573221	0.8826062599082545	-0.2526239110074699	-0.04865062595752782	-0.6578878132985648	0.9667301995604605	0.9667301995605079	0.06220611260202758	0.1744518124955342	0.2991519008042868	0.09308275922641798	-0.3289388787997581	-0.1808436810966686	-0.4621072645989701	1.72218010866457	-0.02617962152839391	0.4623961405632177	-0.7016215670452429	1.827361421841882	1.827361421841899	-0.1165079827250406	-0.0008232190742383718	0.5141455003789817	0.1279911150887345	-0.2046772706137891	-0.0004624040976497478	0.03630236031831084	-0.291638059988307	-0.01442710427062203	-0.007490371025071877	0.2484988429033501	-7.394026888422253	-48.0438680940793	-9.808175270861494	-0.1355455352011132	-3.009031851039592	-653.3753760031724	64.39611125524223	0.3034209559341208	0.5552657902489411	-0.2353698513882168	-1.496372038494642	0.1677661204292523	-0.2884335661296367	1.851247244900115	-1.691883323544981	-1.69188332354498	0.419473718079941	-0.02371428893579107	-0.5623653862883569	0.1666299621462486	-8.980148010078556e-08	-1.316691555035418e-08	1.311014439548957e-06	-2.130730347229784e-07	-1.344536280176187e-07	-1.315314078304231e-07	8.864978249582994e-07
0.53	-0.142145527695317	0.03124216950154106	0.801965871618413	0.8997506561998361	-0.2528778218899657	-0.04404267384724486	-0.6648109937836426	0.9849166199852919	0.9849166199853219	0.06106208713946079	0.1744440115530505	0.3042642692727547	0.09436997609584447	-0.3257186536390141	-0.175261820840205	-0.464144737964793	1.706471739310859	-0.0246016218181276	0.4591377178501772	-0.6829460554083218	1.809683822607573	1.809683822607579	-0.1123186125210472	-0.0007311101855432822	0.5082582566164121	0.1294345012825539	-0.2106385142520277	0.0001813501392822566	0.03686423278634381	-0.2962050806697289	-0.01586067727698016	-0.007054249124941551	0.2540381191089064	-6.541099867937157	-48.77383477016008	-9.838979005248136	-0.02509191840529492	-2.849139918777638	-657.899330222903	64.879954149282	0.3390576288227008	0.5610008778122015	-0.1723541730411838	-1.642181895758594	0.1530067341728447	-0.3531622460511329	1.885974307338888	-1.84150710749196	-1.84150710749362	0.4156182206265261	0.02655396868630975	-0.6124325240852426	0.1307099665377631	-8.206305010390756e-08	-8.317816621453753e-09	1.260352328723661e-06	-1.706447868499426e-07	-1.337819585514576e-07	-1.175148058580184e-07	8.586122067278196e-07
0.54	-0.1453853240714497	0.02951768548435739	0.7973168330270732	0.9167311462954922	-0.2531159148077894	-0.03946902908852348	-0.6715453649155008	1.002919102640957	1.002919102640967	0.05995934528874654	0.1744373077976389	0.3093156595730281	0.09567113023091678	-0.3221890551711509	-0.1696257712050408	-0.4655589350850951	1.689398869479178	-0.02301602859396165	0.4555346702507421	-0.6638596964013749	1.790573868008539	1.790573868008534	-0.1082512603543538	-0.0006037816602818676	0.5019498667400838	0.1307785682178924	-0.2165997578902675	0.0008251043762181285	0.03742610525438533	-0.3007721013511507	-0.01729425028333714	-0.006618127224805014	0.2595773953144614	-5.745462950858712	-49.50302666138662	-9.862679446775372	0.07627034050087857	-2.716853160503859	-662.4214024835061	65.40572554659614	0.3652956173579062	0.566103665989077	-0.1107146022840588	-1.769272134088557	0.1692848232091785	-0.3573585434085275	1.93341671890524	-1.978354396489941	-1.978354396489942	0.395070110619963	-0.01667036162253075	-0.6465946090400521	0.1467661104500702	-7.383952760274685e-08	-3.81745009103963e-09	1.194741087118327e-06	-1.306476828755987e-07	-1.314865502747437e-07	-1.03047975209891e-07	8.219016933397554e-07
0.55	-0.1485883605709146	0.0278497817207868	0.7926567697686068	0.9335342903587734	-0.2533380852662376	-0.03493305335634212	-0.6780869036143103	1.020723513337684	1.020723513337658	0.05889656481136604	0.1744319079051626	0.314301957564732	0.09698528076473494	-0.3183694623267165	-0.1639503208792499	-0.4663485092292166	1.671012167859937	-0.0214198358947232	0.4516084961548816	-0.644393676278803	1.77008335912784	1.770083359127844	-0.1043230985469569	-0.000473109850717886	0.4952465130119214	0.1320304445668807	-0.2223690965078243	0.001430765975652321	0.03795669578727461	-0.3054647655190064	-0.01864139130555369	-0.006286975556693495	0.2649187859601818	-5.00706210649289	-50.21236836491106	-9.934385841502911	0.1920173997521676	-2.543896389804596	-666.9190363630321	65.85702052334196	0.397608164308732	0.5689387635189171	-0.04731674501645063	-1.906035686127522	0.1545694109928231	-0.4181545350682645	1.96134972115462	-2.118122094429598	-2.118122094428164	0.3891050062544718	0.02841522458470112	-0.6917230850554404	0.1114036311680644	-6.631888247721819e-08	6.634675644338654e-11	1.13068767629584e-06	-9.563273046471722e-08	-1.289172817536961e-07	-8.954718198169871e-08	7.863185350296797e-07
0.5600000000000001	-0.1517517377326683	0.02623876707000315	0.7879919631837909	0.9501470341038064	-0.2535443372141511	-0.03043792090359685	-0.6844321510994498	1.03831627435349	1.038316274353427	0.05787254911014938	0.1744279105852524	0.3192193185530841	0.09831135110885195	-0.3142571876293876	-0.1582479486476522	-0.4665076003549526	1.651318805829267	-0.01983232648702062	0.4473660143632834	-0.624601453667378	1.748243931824355	1.748243931824369	-0.1004983051213632	-0.0003232671475999983	0.488162466069715	0.1331625302776634	-0.2281384351253841	0.002036427575091286	0.03848728632017286	-0.3101574296868621	-0.0199885323277686	-0.0059558238885741	0.2702601766058991	-4.325436242129838	-50.92174618360433	-9.999727076097074	0.2994718795039725	-2.398125869927845	-671.4265393344668	66.34679252227399	0.42383198793679	0.5714880471504701	0.01538200139303717	-2.030604216374368	0.1675481649020029	-0.4206200825560442	1.998657216675813	-2.248138081047027	-2.24813808104704	0.3743964342593378	-0.01283618291175231	-0.7227332518488228	0.1228079828089717	-5.964169020244797e-08	3.210259984409098e-09	1.068503662412771e-06	-6.659635992999061e-08	-1.260193809394481e-07	-7.720563365742857e-08	7.5208820281319e-07
0.5700000000000001	-0.1548725998494474	0.02468486026514679	0.7833287114929965	0.9665564966554306	-0.2537347304017725	-0.02598672443500733	-0.6905779309061367	1.055684072726461	1.055684072726443	0.05688617702713	0.1744253759350032	0.3240640235816465	0.09964818998701198	-0.3098683740536421	-0.1525333079954116	-0.4660371370530114	1.630364511312485	-0.01825015484816786	0.4428231952359211	-0.6045141090822456	1.725103812688872	1.725103812688875	-0.09679302288043473	-0.0001821457407029795	0.4807214479092227	0.1341814109350662	-0.2337147613312436	0.002576983767646898	0.03898620616850262	-0.3148984919300323	-0.02132841108295246	-0.005687064035365993	0.2753923279844189	-3.699844146588969	-51.63099895682264	-10.09373242812476	0.413311483677026	-2.192795219136317	-675.8589973974692	66.79404105251524	0.4534350893724455	0.571442847521732	0.07870456233072846	-2.159220806270799	0.153021187512004	-0.4787188511631568	2.019832867558534	-2.378727169021774	-2.378727169023447	0.3661938322005419	0.02784004275101765	-0.7633809207177695	0.08800943857610614	-5.328679772096004e-08	6.112177326906519e-09	1.004820467507853e-06	-4.044919318965821e-08	-1.228543081260039e-07	-6.51228023573109e-08	7.164533406927078e-07
